<svg width="18" height="20" viewBox="0 0 18 20" fill="none" xmlns="http://www.w3.org/2000/svg">
<path d="M17.5263 5.90673C17.2643 5.59374 16.7975 5.55259 16.4845 5.81359L14.4333 7.53667L13.49 5.19953C13.4564 5.1118 13.4055 5.03816 13.347 4.97318C13.1542 4.5443 12.8196 4.17608 12.3582 3.96272C12.1579 3.87175 11.951 3.82302 11.7441 3.79919C11.6987 3.77536 11.6575 3.74396 11.6055 3.72771L7.99583 2.72159C7.79331 2.66636 7.58971 2.7021 7.42292 2.79957C7.22473 2.86672 7.0547 3.01076 6.97347 3.21978L5.61429 6.71466C5.467 7.0948 5.65544 7.52367 6.03666 7.67313C6.41572 7.82042 6.84567 7.63089 6.99405 7.24967L8.14204 4.29846L9.78605 4.75549C9.74598 4.82047 9.70266 4.88112 9.67017 4.95043L7.56263 9.51858C7.53231 9.58573 7.51606 9.65396 7.4944 9.72327L4.93307 14.0174L0.646509 15.4513C0.161319 15.8141 0.058433 16.4975 0.41691 16.9827C0.777554 17.469 1.4631 17.5719 1.94721 17.2134L6.33341 15.7026C6.4677 15.6051 6.56518 15.4773 6.63882 15.3398C6.69405 15.2813 6.75687 15.2347 6.79911 15.1622L8.32615 12.6019L11.0369 14.912L8.13663 18.1805C7.737 18.6311 7.77707 19.3253 8.22976 19.7238C8.68138 20.1256 9.37343 20.0834 9.77522 19.6307L13.3947 15.5531C13.5073 15.4275 13.5744 15.2824 13.6199 15.1308C13.647 15.0484 13.647 14.9629 13.6535 14.8773C13.6535 14.834 13.6697 14.795 13.6665 14.7549C13.6567 14.456 13.5354 14.1658 13.2907 13.9589L10.7965 11.8319C10.9763 11.6608 11.129 11.4572 11.2395 11.2178L12.8553 7.71861L13.373 9.09729C13.3947 9.21967 13.4358 9.33988 13.5224 9.4406C13.6004 9.53374 13.7001 9.59547 13.8062 9.6388C13.817 9.64421 13.83 9.64529 13.843 9.64854C13.9102 9.67237 13.9784 9.69511 14.0488 9.69836C14.1322 9.70594 14.2167 9.69511 14.3022 9.67129C14.3044 9.6702 14.3055 9.6702 14.3055 9.6702C14.3282 9.66479 14.351 9.66912 14.3737 9.65937C14.4939 9.61389 14.586 9.53699 14.665 9.4471L17.6087 6.94859C17.9216 6.68542 17.7895 6.21972 17.5263 5.90673Z" fill="#EF8964"/>
<path d="M13.8053 4.12628C14.9448 4.12628 15.8685 3.20258 15.8685 2.06314C15.8685 0.923699 14.9448 0 13.8053 0C12.6659 0 11.7422 0.923699 11.7422 2.06314C11.7422 3.20258 12.6659 4.12628 13.8053 4.12628Z" fill="#EF8964"/>
</svg>
