<svg width="21" height="21" viewBox="0 0 21 21" fill="none" xmlns="http://www.w3.org/2000/svg">
<path d="M10.5 3.5C11.4283 3.5 12.3185 3.86875 12.9749 4.52513C13.6313 5.1815 14 6.07174 14 7C14 7.92826 13.6313 8.8185 12.9749 9.47488C12.3185 10.1313 11.4283 10.5 10.5 10.5C9.57175 10.5 8.68151 10.1313 8.02513 9.47488C7.36875 8.8185 7 7.92826 7 7C7 6.07174 7.36875 5.1815 8.02513 4.52513C8.68151 3.86875 9.57175 3.5 10.5 3.5ZM10.5 17.5C10.5 17.5 17.5 17.5 17.5 15.75C17.5 13.65 14.0875 11.375 10.5 11.375C6.9125 11.375 3.5 13.65 3.5 15.75C3.5 17.5 10.5 17.5 10.5 17.5Z" fill="#EFEDE8" fill-opacity="0.1"/>
</svg>
